{"title":"White Collar S05E06 HDTV 480p x264 AAC [GWC].mp4","uid":9233198,"size":130676781,"categoryP":"video","categoryS":"tv_shows","magnet":"?xt=urn:btih:38b6b2c767692453ad3ab2a7c1abac3646295052&amp;dn=White+Collar+S05E06+HDTV+480p+x264+AAC+%5BGWC%5D.mp4&amp;tr=udp%3A%2F%2Ftracker.openbittorrent.com%3A80&amp;tr=udp%3A%2F%2Fopen.demonii.com%3A1337&amp;tr=udp%3A%2F%2Ftracker.coppersurfer.tk%3A6969&amp;tr=udp%3A%2F%2Fexodus.desync.com%3A6969","seeders":1,"leechers":0,"uploader":"canc232","files":1,"time":1385079105,"description":"White Collar S05E06 HDTV 480p x264 AAC [GWC] \n\n\n\nSCREENS :\n &lt;a href=&quot;\nhttp://s20.postimg.org/75a7tgrgd/White_collar_s05e06_14_54_20.jpg&quot; rel=&quot;nofollow&quot; target=&quot;_NEW&quot;&gt;\nhttp://s20.postimg.org/75a7tgrgd/White_collar_s05e06_14_54_20.jpg&lt;/a&gt; &lt;a href=&quot;\nhttp://s20.postimg.org/8llqblud9/White_collar_s05e06_14_54_36.jpg&quot; rel=&quot;nofollow&quot; target=&quot;_NEW&quot;&gt;\nhttp://s20.postimg.org/8llqblud9/White_collar_s05e06_14_54_36.jpg&lt;/a&gt; &lt;a href=&quot;\nhttp://s20.postimg.org/7xcvsnvnh/White_collar_s05e06_14_56_44.jpg&quot; rel=&quot;nofollow&quot; target=&quot;_NEW&quot;&gt;\nhttp://s20.postimg.org/7xcvsnvnh/White_collar_s05e06_14_56_44.jpg&lt;/a&gt;\n\n\nMEDIA INFO :\n\nGeneral \nFormat : MPEG-4 \nFormat profile : Base Media\nFile size : 125 MiB \nDuration : 41mn 54s \nOverall bit rate mode : Variable \nOverall bit rate : 416 Kbps \n\nVideo\nFormat : AVC\nFormat profile : &lt;a class=&quot;__cf_email__&quot; href=&quot;/cdn-cgi/l/email-protection&quot; data-cfemail=&quot;5018393738101c637e60&quot;&gt;[email&amp;#160;protected]&lt;/a&gt;&lt;script cf-hash='f9e31' type=&quot;text/javascript&quot;&gt;\n/* &lt;![CDATA[ */!function(){try{var t=&quot;currentScript&quot;in document?document.currentScript:function(){for(var t=document.getElementsByTagName(&quot;script&quot;),e=t.length;e--;)if(t[e].getAttribute(&quot;cf-hash&quot;))return t[e]}();if(t&amp;&amp;t.previousSibling){var e,r,n,i,c=t.previousSibling,a=c.getAttribute(&quot;data-cfemail&quot;);if(a){for(e=&quot;&quot;,r=parseInt(a.substr(0,2),16),n=2;a.length-n;n+=2)i=parseInt(a.substr(n,2),16)^r,e+=String.fromCharCode(i);e=document.createTextNode(e),c.parentNode.replaceChild(e,c)}}}catch(u){}}();/* ]]&gt; */&lt;/script&gt; \nFormat settings, CABAC : Yes \nFormat settings, ReFrames : 4 frames\nDuration : 41mn 54s \nBit rate : 353 Kbps\nWidth : 720 pixels \nHeight : 404 pixels \nDisplay aspect ratio : 16:9\nFrame rate : 23.976 fps  \nStream size : 106 MiB (85%) \nTitle : White Collar S05E06 HDTV 480p x264 AAC [GWC] \nWriting library : x264 core\n\nAudio\nFormat : AAC\nFormat profile : HE-AAC / LC\nDuration : 41mn 54s \nBit rate mode : Variable \nChannel(s) : 2 channels \nSampling rate : 48.0 KHz / 24.0 KHz \nStream size : 18.0 MiB (14%) \nLanguage : English \n","torrent":{"xt":"urn:btih:38b6b2c767692453ad3ab2a7c1abac3646295052","amp;dn":"White+Collar+S05E06+HDTV+480p+x264+AAC+%5BGWC%5D.mp4","amp;tr":["udp%3A%2F%2Ftracker.openbittorrent.com%3A80","udp%3A%2F%2Fopen.demonii.com%3A1337","udp%3A%2F%2Ftracker.coppersurfer.tk%3A6969","udp%3A%2F%2Fexodus.desync.com%3A6969"],"infoHash":"38b6b2c767692453ad3ab2a7c1abac3646295052","infoHashBuffer":{"type":"Buffer","data":[56,182,178,199,103,105,36,83,173,58,178,167,193,171,172,54,70,41,80,82]},"announce":[],"urlList":[]}}